<svg width="1290" height="948" viewBox="0 0 1290 948" fill="none" xmlns="http://www.w3.org/2000/svg">
<path d="M405.5 201.5C405.5 201.5 -263 61 969.001 -116.5C1182.33 54.5 1533.5 -98 1324.5 122.5C988.85 476.621 1288.49 392.743 1257.5 639.5C1244 747 1119.5 839 1035.5 858C960.211 875.03 120.983 996.652 476 685.5C909 306 405.5 201.5 405.5 201.5Z" fill="#FF7200" fill-opacity="0.32"/>
<path d="M238.284 219.681C238.284 219.681 -641.467 72.2527 979.854 -114C1260.6 65.4322 1722.74 -94.5878 1447.7 136.785C1005.98 508.368 1400.3 420.354 1359.52 679.279C1341.76 792.08 1177.91 888.617 1067.37 908.554C968.287 926.423 -136.143 1054.04 331.062 727.548C900.893 329.334 238.284 219.681 238.284 219.681Z" fill="#FF7200" fill-opacity="0.32"/>
</svg>
