<svg width="32" height="30" viewBox="0 0 32 30" fill="none" xmlns="http://www.w3.org/2000/svg">
<path d="M20.6667 17.5H19.6133L19.24 17.1625C20.5467 15.7375 21.3333 13.8875 21.3333 11.875C21.3333 7.3875 17.4533 3.75 12.6667 3.75C7.88 3.75 4 7.3875 4 11.875C4 16.3625 7.88 20 12.6667 20C14.8133 20 16.7867 19.2625 18.3067 18.0375L18.6667 18.3875V19.375L25.3333 25.6125L27.32 23.75L20.6667 17.5ZM12.6667 17.5C9.34667 17.5 6.66667 14.9875 6.66667 11.875C6.66667 8.7625 9.34667 6.25 12.6667 6.25C15.9867 6.25 18.6667 8.7625 18.6667 11.875C18.6667 14.9875 15.9867 17.5 12.6667 17.5Z" fill="black"/>
</svg>
